<?xml version="1.0" encoding="utf-8"?>
<!-- Generator: Adobe Illustrator 25.0.0, SVG Export Plug-In . SVG Version: 6.00 Build 0)  -->
<svg version="1.1" id="圖層_1" xmlns="http://www.w3.org/2000/svg" xmlns:xlink="http://www.w3.org/1999/xlink" x="0px" y="0px"
	 viewBox="0 0 8.7 8.7" style="enable-background:new 0 0 8.7 8.7;" xml:space="preserve">
<style type="text/css">
	<!-- .st0{fill:#777777;} -->
</style>
<g id="圖層_2_1_">
	<g id="圖層_1-2">
		<path class="st0" d="M4.3,0C1.9,0,0,1.9,0,4.3s1.9,4.3,4.3,4.3s4.3-1.9,4.3-4.3S6.7,0,4.3,0z M5.7,2.9c0.3,0,0.6,0.2,0.6,0.6
			S6,4,5.7,4C5.4,4,5.1,3.8,5.1,3.5C5.1,3.2,5.4,2.9,5.7,2.9z M2.9,2.9c0.3,0,0.6,0.3,0.5,0.6C3.5,3.8,3.2,4,2.9,4
			C2.6,4,2.3,3.8,2.3,3.5C2.3,3.2,2.6,2.9,2.9,2.9C2.9,2.9,2.9,2.9,2.9,2.9z M5.9,6.7c-0.7-0.9-2-1-2.9-0.3C2.9,6.5,2.8,6.6,2.7,6.7
			c-0.1,0.1-0.3,0.1-0.4,0c-0.1-0.1-0.1-0.3,0-0.4C3.2,5.2,4.9,5.1,6,6c0.1,0.1,0.2,0.2,0.3,0.3c0.1,0.1,0.1,0.3,0,0.4
			C6.1,6.8,6,6.8,5.9,6.7z"/>
	</g>
</g>
</svg>
